<?xml version="1.0" encoding="UTF-8" ?>
<!DOCTYPE svg PUBLIC "-//W3C//DTD SVG 1.1//EN" "http://www.w3.org/Graphics/SVG/1.1/DTD/svg11.dtd">
<svg width="1001pt" height="1001pt" viewBox="0 0 1001 1001" version="1.1" xmlns="http://www.w3.org/2000/svg">
<g id="#ffffffff">
<path fill="#ffffff" opacity="1.00" d=" M 466.27 494.54 C 467.40 493.61 468.86 495.58 467.73 496.46 C 466.58 497.37 465.12 495.41 466.27 494.54 Z" />
</g>
<g id="#000000ff">
<path fill="#000000" opacity="1.00" d=" M 79.45 4.56 C 83.08 4.43 90.36 4.15 93.99 4.01 C 365.66 3.95 637.33 4.08 909.00 3.95 C 924.40 3.43 939.67 6.79 954.11 11.92 C 970.35 19.74 984.85 32.66 991.13 49.94 C 997.02 62.45 996.53 76.53 996.99 89.99 C 997.02 368.33 996.98 646.68 997.01 925.02 C 997.79 937.82 992.84 950.02 987.25 961.25 C 980.53 974.44 968.24 983.50 955.63 990.60 C 943.10 996.78 928.65 996.86 915.01 997.00 C 636.67 997.03 358.33 996.92 79.99 997.06 C 51.55 999.06 23.38 980.82 11.91 955.05 C 4.19 940.69 4.94 923.76 4.03 908.01 C 3.97 636.34 4.01 364.67 4.01 93.00 C 3.77 83.26 5.49 73.66 6.14 63.98 C 11.25 44.52 22.84 25.70 40.96 15.94 C 52.29 8.37 66.07 5.66 79.45 4.56 M 58.70 16.70 C 33.78 26.48 12.69 50.15 12.99 77.98 C 11.81 81.60 14.22 84.33 16.64 86.35 C 50.29 110.67 84.52 134.19 118.38 158.21 C 119.58 149.04 123.22 140.27 129.03 133.06 C 135.93 123.96 147.25 119.92 158.15 118.26 C 140.50 95.51 125.59 70.76 108.14 47.85 C 99.54 36.58 91.73 24.75 83.81 13.00 C 75.45 14.26 66.89 14.52 58.70 16.70 M 85.97 13.04 C 96.12 28.66 107.36 43.52 118.52 58.43 C 129.34 74.86 141.11 90.62 152.07 106.95 C 154.72 110.54 157.07 114.50 160.43 117.49 C 167.82 118.90 175.52 117.78 183.00 118.11 C 402.92 117.76 622.83 118.26 842.75 117.86 C 854.53 98.88 868.60 81.49 880.90 62.88 C 893.20 46.45 904.60 29.36 917.03 13.03 C 640.01 12.98 362.99 12.97 85.97 13.04 M 919.30 12.95 C 893.82 47.86 869.19 83.35 844.14 118.56 C 851.49 119.86 859.17 121.02 865.24 125.76 C 876.41 132.98 882.23 145.95 883.91 158.76 C 907.26 142.16 929.92 124.57 954.01 109.01 C 966.06 101.41 977.02 92.24 989.10 84.67 C 989.72 61.49 979.22 37.34 959.02 24.99 C 947.64 16.40 932.99 14.81 919.30 12.95 M 13.15 86.57 C 12.80 228.05 13.10 369.52 13.00 511.00 C 13.14 646.13 12.72 781.27 13.21 916.40 C 47.87 891.49 82.86 867.02 117.87 842.63 C 118.02 615.23 118.21 387.83 117.78 160.44 C 82.72 136.08 47.88 111.39 13.15 86.57 M 988.95 86.99 C 963.50 106.09 936.34 122.75 910.88 141.84 C 901.87 148.66 892.72 155.30 883.16 161.31 C 882.91 388.09 882.87 614.87 883.18 841.65 C 893.30 847.72 902.54 855.06 912.10 861.95 C 937.02 880.98 964.09 897.00 988.95 916.12 C 989.03 639.74 989.03 363.36 988.95 86.99 M 160.39 120.46 C 147.76 121.17 134.74 126.92 127.94 137.97 C 121.50 146.50 119.82 157.56 119.98 167.98 C 120.02 377.99 120.01 587.99 119.99 798.00 C 120.12 813.67 119.40 829.41 120.78 845.05 C 121.95 862.60 135.69 878.89 153.34 881.50 C 168.53 882.58 183.78 881.87 199.00 882.01 C 412.34 881.98 625.69 882.02 839.03 882.00 C 859.36 883.75 881.06 867.23 880.94 846.04 C 881.09 629.36 880.94 412.68 881.01 196.00 C 880.95 182.65 881.41 169.30 880.81 155.97 C 880.57 144.48 873.51 134.11 864.24 127.77 C 854.49 120.55 841.68 119.96 830.01 119.93 C 623.34 120.09 416.67 119.96 210.00 120.00 C 193.46 120.16 176.90 119.39 160.39 120.46 M 883.46 844.05 C 882.69 855.14 878.50 866.47 869.66 873.64 C 862.82 880.16 853.51 882.95 844.43 884.69 C 861.69 909.65 879.31 934.32 897.04 958.95 C 904.59 968.74 910.54 979.92 919.18 988.80 C 931.93 989.46 945.31 987.60 955.96 979.97 C 977.71 967.94 990.19 942.91 989.17 918.39 C 977.08 910.79 966.08 901.60 954.01 893.99 C 929.77 878.36 907.01 860.65 883.46 844.05 M 15.53 917.56 C 10.71 920.54 13.79 927.05 13.57 931.55 C 15.72 951.27 28.25 968.80 44.91 979.15 C 56.31 987.23 70.83 989.34 84.50 989.06 C 97.47 967.94 113.72 949.04 127.20 928.23 C 136.74 912.99 147.66 898.68 158.82 884.61 C 148.61 883.15 137.99 880.13 130.85 872.17 C 124.26 864.40 119.57 854.99 118.24 844.83 C 83.97 869.03 49.46 892.89 15.53 917.56 M 161.25 884.13 C 151.23 898.12 140.13 911.35 130.96 925.96 C 117.24 947.65 100.62 967.34 86.77 988.93 C 363.21 989.05 639.66 989.04 916.10 988.93 C 901.07 968.21 885.90 947.57 871.60 926.34 C 860.95 912.78 851.56 898.32 841.89 884.06 C 615.01 884.00 388.13 883.87 161.25 884.13 Z" />
<path fill="#000000" opacity="1.00" d=" M 189.40 165.55 C 204.23 164.38 219.13 165.12 234.00 164.99 C 424.00 164.97 614.01 165.09 804.01 164.93 C 814.50 164.64 826.43 167.05 833.03 175.97 C 836.25 181.31 835.52 188.03 836.01 193.97 C 835.92 402.33 836.13 610.70 835.91 819.06 C 834.80 830.11 823.37 836.95 813.01 836.82 C 787.34 837.66 761.66 836.75 736.00 836.01 C 584.33 835.96 432.67 836.05 281.00 835.97 C 254.32 835.73 227.68 837.55 200.99 837.13 C 193.21 836.77 184.92 837.78 177.66 834.35 C 170.33 829.93 165.21 821.65 165.25 813.00 C 163.80 781.99 166.38 751.00 166.03 720.00 C 165.95 566.67 166.03 413.33 165.99 260.00 C 165.63 235.99 164.09 211.98 165.21 187.97 C 166.59 175.91 177.02 165.64 189.40 165.55 M 177.51 175.18 C 178.69 176.79 179.89 178.39 181.10 179.98 C 183.97 178.70 186.88 177.49 189.86 176.47 C 189.85 174.77 189.84 171.39 189.83 169.69 C 185.64 171.34 181.58 173.27 177.51 175.18 M 192.00 170.00 C 192.00 171.50 192.00 174.50 192.00 176.00 C 397.67 176.00 603.33 176.00 809.00 176.00 C 809.00 174.50 809.00 171.50 809.00 170.00 C 603.33 170.00 397.67 170.00 192.00 170.00 M 811.18 169.45 C 811.14 171.34 811.06 175.11 811.02 176.99 C 814.22 177.56 817.45 178.85 820.76 178.99 C 822.34 178.23 823.60 176.95 824.94 175.84 C 820.55 173.31 815.89 171.29 811.18 169.45 M 175.15 177.02 C 173.16 181.25 171.16 185.48 169.54 189.86 C 171.26 189.84 174.71 189.80 176.44 189.78 C 177.56 186.88 178.83 184.05 180.10 181.21 C 178.86 180.16 176.38 178.07 175.15 177.02 M 822.17 181.95 C 823.20 184.59 824.24 187.25 825.27 189.91 C 827.10 189.86 830.76 189.78 832.59 189.73 C 830.74 185.43 828.75 181.21 826.71 177.00 C 825.20 178.66 823.70 180.31 822.17 181.95 M 191.40 181.55 C 187.65 182.29 183.20 184.04 182.03 188.04 C 180.51 192.50 179.94 197.26 180.00 201.97 C 179.97 398.65 180.05 595.33 179.96 792.01 C 180.26 799.96 179.85 808.20 182.16 815.92 C 183.77 820.92 189.49 821.53 193.96 821.08 C 385.64 820.90 577.32 821.04 769.00 821.01 C 783.94 820.86 798.90 821.61 813.83 820.62 C 816.92 819.17 821.44 817.23 821.00 813.07 C 821.03 618.05 820.96 423.02 821.02 228.00 C 820.91 214.80 821.62 201.56 820.48 188.39 C 819.04 182.51 811.46 180.10 806.04 180.91 C 616.03 181.11 426.01 180.96 236.00 180.99 C 221.14 181.15 206.23 180.31 191.40 181.55 M 169.00 192.00 C 169.00 398.00 169.00 604.00 169.00 810.00 C 170.75 810.00 174.25 810.00 176.00 810.00 C 176.00 604.00 176.00 398.00 176.00 192.00 C 174.25 192.00 170.75 192.00 169.00 192.00 M 825.00 192.00 C 825.00 398.00 825.00 604.00 825.00 810.00 C 826.75 810.00 830.25 810.00 832.00 810.00 C 832.00 604.00 832.00 398.00 832.00 192.00 C 830.25 192.00 826.75 192.00 825.00 192.00 M 169.28 812.28 C 170.86 816.92 173.10 821.29 175.46 825.59 C 176.96 824.33 178.45 823.08 179.94 821.83 C 178.75 818.62 177.60 815.35 176.62 812.09 C 174.78 812.14 171.12 812.23 169.28 812.28 M 825.19 812.06 C 824.47 814.97 823.24 817.80 823.00 820.82 C 823.69 822.69 824.93 824.28 825.95 826.00 C 829.05 821.87 831.43 817.21 832.77 812.20 C 830.88 812.17 827.09 812.09 825.19 812.06 M 181.28 822.63 C 179.98 824.46 178.67 826.29 177.38 828.14 C 181.78 829.77 186.19 831.40 190.83 832.27 C 190.34 826.71 185.34 824.89 181.28 822.63 M 809.96 832.52 C 814.75 831.30 819.50 829.80 824.13 828.06 C 823.62 826.48 823.10 824.90 822.61 823.34 C 817.55 825.04 809.93 825.27 809.96 832.52 M 192.00 826.00 C 192.00 827.50 192.00 830.50 192.00 832.00 C 397.67 832.00 603.33 832.00 809.00 832.00 C 809.00 830.50 809.00 827.50 809.00 826.00 C 603.33 826.00 397.67 826.00 192.00 826.00 Z" />
<path fill="#000000" opacity="1.00" d=" M 345.43 406.62 C 363.58 405.32 381.84 405.81 400.04 406.11 C 403.70 406.11 405.09 410.51 407.29 412.73 C 407.87 413.66 408.43 415.46 407.32 416.22 C 403.39 419.18 399.45 423.34 394.00 422.72 C 377.32 423.41 360.61 423.23 343.93 422.99 C 339.26 423.21 337.25 417.92 334.73 414.87 C 336.79 410.79 341.12 407.90 345.43 406.62 Z" />
<path fill="#000000" opacity="1.00" d=" M 323.53 431.52 C 323.87 424.71 329.89 420.98 334.77 417.36 C 337.20 420.09 339.66 422.78 342.17 425.44 C 340.12 441.56 336.55 457.47 333.49 473.43 C 333.49 480.81 326.31 483.73 321.07 487.07 C 318.87 482.79 313.78 478.88 316.31 473.42 C 318.54 459.43 321.03 445.47 323.53 431.52 Z" />
<path fill="#000000" opacity="1.00" d=" M 464.42 490.08 C 467.41 484.98 472.60 480.31 478.99 481.19 C 495.96 480.74 512.97 480.54 529.94 481.21 C 533.35 482.40 535.06 486.41 537.27 489.12 C 535.50 492.82 531.81 495.14 528.32 497.03 C 508.93 499.26 489.33 497.53 469.86 497.98 C 471.63 508.65 468.37 519.17 466.77 529.64 C 465.16 537.74 464.62 546.13 461.89 553.97 C 459.39 557.55 455.37 559.80 452.04 562.57 C 449.45 559.66 446.90 556.72 444.33 553.82 C 447.24 538.08 449.55 522.24 452.54 506.52 C 452.94 498.81 461.05 496.07 464.42 490.08 M 466.27 494.54 C 465.12 495.41 466.58 497.37 467.73 496.46 C 468.86 495.58 467.40 493.61 466.27 494.54 Z" />
<path fill="#000000" opacity="1.00" d=" M 618.43 481.62 C 636.58 480.32 654.84 480.80 673.04 481.11 C 677.13 481.42 678.85 486.31 681.22 489.11 C 679.50 493.04 675.33 495.61 671.55 497.35 C 653.38 498.73 635.12 498.09 616.93 497.99 C 612.26 498.21 610.24 492.92 607.73 489.87 C 609.79 485.79 614.11 482.90 618.43 481.62 Z" />
<path fill="#000000" opacity="1.00" d=" M 310.55 506.56 C 310.90 499.74 316.86 495.98 321.76 492.37 C 323.95 495.28 326.12 498.16 328.32 501.09 C 326.57 514.96 323.76 528.67 321.63 542.48 C 320.66 546.47 320.56 550.90 318.54 554.58 C 315.75 557.63 312.28 560.01 309.04 562.57 C 306.44 559.66 303.89 556.71 301.31 553.81 C 304.69 538.12 307.08 522.23 310.55 506.56 Z" />
<path fill="#000000" opacity="1.00" d=" M 596.53 506.52 C 596.87 499.70 602.89 495.98 607.77 492.36 C 610.20 495.09 612.65 497.77 615.17 500.44 C 613.12 516.56 609.55 532.47 606.49 548.43 C 606.49 555.81 599.31 558.73 594.07 562.07 C 591.86 557.79 586.78 553.88 589.31 548.42 C 591.54 534.43 594.03 520.47 596.53 506.52 Z" />
<path fill="#000000" opacity="1.00" d=" M 525.67 501.48 C 528.91 497.59 533.52 495.14 538.04 493.04 C 540.45 497.36 544.73 501.31 543.62 506.84 C 541.18 521.08 538.33 535.27 535.46 549.43 C 535.50 556.03 529.39 558.99 525.02 562.55 C 522.01 559.77 519.14 556.83 516.27 553.93 C 519.74 536.51 521.75 518.79 525.67 501.48 Z" />
<path fill="#000000" opacity="1.00" d=" M 669.71 501.50 C 672.30 498.05 676.20 495.88 679.66 493.41 C 682.14 495.71 684.64 498.06 687.17 500.36 C 685.55 516.52 682.18 532.46 679.48 548.46 C 679.29 554.81 674.05 559.14 668.92 561.89 C 664.94 561.14 663.14 556.47 660.23 553.99 C 663.79 536.57 665.68 518.81 669.71 501.50 Z" />
<path fill="#000000" opacity="1.00" d=" M 307.39 564.36 C 312.38 561.65 316.86 557.00 323.01 557.30 C 340.38 556.43 357.78 557.19 375.16 556.95 C 377.05 560.21 381.57 562.59 381.75 566.68 C 378.32 569.96 374.21 573.66 369.01 572.84 C 350.30 573.46 331.58 572.80 312.87 573.03 C 311.02 570.12 309.18 567.27 307.39 564.36 Z" />
<path fill="#000000" opacity="1.00" d=" M 450.39 564.36 C 455.38 561.65 459.86 556.99 466.01 557.33 C 479.33 556.53 492.68 556.87 506.02 556.88 C 510.22 557.66 515.63 555.60 519.19 558.77 C 521.41 560.61 523.56 562.65 525.02 565.18 C 524.01 568.93 519.78 570.83 516.59 572.46 C 496.38 573.86 476.10 572.64 455.87 573.03 C 454.02 570.12 452.18 567.27 450.39 564.36 Z" />
<path fill="#000000" opacity="1.00" d=" M 473.40 683.71 C 482.43 673.90 491.69 664.22 501.66 655.35 C 510.91 664.71 521.10 673.29 529.16 683.76 C 521.62 692.59 513.32 700.87 504.09 707.95 C 504.22 705.26 504.49 699.88 504.62 697.20 C 507.80 691.84 512.71 687.81 516.88 683.26 C 511.70 678.17 506.57 673.03 501.37 667.97 C 496.31 673.15 491.20 678.28 486.14 683.46 C 489.56 687.39 493.57 690.98 496.22 695.52 C 496.60 699.53 496.86 703.56 496.98 707.62 C 488.29 700.49 481.19 691.75 473.40 683.71 Z" />
<path fill="#000000" opacity="1.00" d=" M 320.43 695.94 C 330.64 685.76 342.20 677.05 353.74 668.46 C 364.55 677.27 375.32 686.14 385.60 695.58 C 370.45 696.04 355.26 696.41 340.11 695.52 C 346.60 688.80 356.30 688.57 365.09 688.50 C 361.20 685.06 357.32 681.64 353.52 678.14 C 347.13 683.19 341.05 688.66 334.55 693.57 C 330.57 696.65 325.01 695.04 320.43 695.94 Z" />
<path fill="#000000" opacity="1.00" d=" M 616.42 670.90 C 631.59 669.67 646.85 669.67 662.05 670.43 C 659.98 672.82 657.83 675.61 654.59 676.37 C 648.33 677.07 642.06 677.09 635.79 677.23 C 640.37 681.18 644.99 685.09 649.67 688.94 C 656.54 683.06 663.02 676.69 670.45 671.50 C 673.92 669.68 678.15 670.45 681.94 670.06 C 672.41 680.78 660.80 689.34 649.78 698.43 C 638.40 689.63 626.28 681.42 616.42 670.90 Z" />
</g>
</svg>
