<?xml version="1.0" encoding="utf-8"?>
<!-- Generator: Adobe Illustrator 24.0.0, SVG Export Plug-In . SVG Version: 6.00 Build 0)  -->
<svg version="1.1" id="Layer_1" xmlns="http://www.w3.org/2000/svg" xmlns:xlink="http://www.w3.org/1999/xlink" x="0px" y="0px"
	 viewBox="0 0 773.2 763.6" style="enable-background:new 0 0 773.2 763.6;" xml:space="preserve">
<style type="text/css">
	.st0{fill:none;stroke:#000000;stroke-width:5;stroke-miterlimit:10;}
	.st1{fill:none;stroke:#000000;stroke-width:3;stroke-miterlimit:10;}
	.st2{stroke:#000000;stroke-width:3;stroke-miterlimit:10;}
	.st3{fill:none;stroke:#000000;stroke-width:4;stroke-miterlimit:10;}
	.st4{fill:#1D1D1B;}
	.st5{fill:none;}
	.st6{clip-path:url(#SVGID_1_);fill:#1D1D1B;}
</style>
<g>
	<path d="M705.9,763.6H67.9c-37.3,0-67.6-29.9-67.6-66.7V66.7C0.3,29.9,30.6,0,67.9,0h638.1c37.3,0,67.6,29.9,67.6,66.7V697
		C773.4,733.7,743.2,763.6,705.9,763.6z M67.9,9.2C35.8,9.2,9.7,35,9.7,66.7V697c0,31.7,26.1,57.5,58.2,57.5h638.1
		c32.1,0,58.2-25.8,58.2-57.5V66.7c0-31.7-26.1-57.5-58.2-57.5H67.9z"/>
</g>
<g>
	<path d="M704.2,739.6H69.5c-25.8,0-46.9-20.7-46.9-46.1V70.2c0-25.4,21.1-46.1,46.9-46.1h634.7c25.8,0,46.9,20.7,46.9,46.1v623.3
		C751.1,718.9,730.1,739.6,704.2,739.6z M69.5,29.7c-22.7,0-41.2,18.2-41.2,40.5v623.3c0,22.3,18.5,40.5,41.2,40.5h634.7
		c22.7,0,41.2-18.2,41.2-40.5V70.2c0-22.3-18.5-40.5-41.2-40.5H69.5z"/>
</g>
<path d="M241,386.4c5,4.3,7.6,6.8,7.5,7.4l-9,50.8c-0.2,0.6-3.6,3.1-10.2,7.4c-5-4.3-7.6-6.8-7.5-7.4l9-50.8
	C231,393.2,234.4,390.8,241,386.4z M242,447.8h56.7c0.7,0.1,3,2.7,6.9,7.9c-5.7,5.2-9,7.8-9.7,7.9h-56.7c-0.7-0.1-3-2.7-6.9-7.9
	C238,450.5,241.3,447.9,242,447.8z M254.2,375.3H312c2.1,2.2,4.2,4.8,6.3,7.9c-3.2,3.1-6.2,5.7-9.1,7.9h-57.8
	c-2.1-2.2-4.2-4.8-6.3-7.9C248.3,380.2,251.3,377.5,254.2,375.3z M267.6,302.9h56.7c0.7,0.1,3,2.7,6.9,7.9c-5.7,5.2-9,7.8-9.7,7.9
	h-56.7c-0.7-0.1-3-2.7-6.9-7.9C263.6,305.6,266.9,303,267.6,302.9z M334.1,314c5,4.3,7.6,6.8,7.5,7.4l-9,50.8
	c-0.2,0.6-3.6,3.1-10.2,7.4c-5-4.3-7.6-6.8-7.5-7.4l9-50.8C324.1,320.8,327.5,318.3,334.1,314z"/>
<g>
	<path d="M348.9,447.9h56.7c0.7,0.1,3,2.7,6.9,7.9c-5.7,5.2-9,7.8-9.7,7.9h-56.7c-0.7-0.1-3-2.7-6.9-7.9
		C344.9,450.6,348.2,448,348.9,447.9z M361.1,375.4h57.8c2.1,2.2,4.2,4.8,6.3,7.9c-3.2,3.1-6.2,5.7-9.1,7.9h-57.8
		c-2.1-2.2-4.2-4.8-6.3-7.9C355.2,380.3,358.2,377.6,361.1,375.4z M374.5,303h56.7c0.7,0.1,3,2.7,6.9,7.9c-5.7,5.2-9,7.8-9.7,7.9
		h-56.7c-0.7-0.1-3-2.7-6.9-7.9C370.5,305.7,373.8,303.1,374.5,303z"/>
	<path d="M361.3,313c5,4.3,7.6,6.8,7.5,7.4l-9,50.8c-0.2,0.6-3.6,3.1-10.2,7.4c-5-4.3-7.6-6.8-7.5-7.4l9-50.8
		C351.3,319.8,354.7,317.3,361.3,313z"/>
	<path d="M427.7,386.5c5,4.3,7.6,6.8,7.5,7.4l-9,50.8c-0.2,0.6-3.6,3.1-10.2,7.4c-5-4.3-7.6-6.8-7.5-7.4l9-50.8
		C417.7,393.3,421.1,390.8,427.7,386.5z"/>
</g>
<g>
	<path d="M475.7,447.9h56.7c0.7,0.1,3,2.7,6.9,7.9c-5.7,5.2-9,7.8-9.7,7.9h-56.7c-0.7-0.1-3-2.7-6.9-7.9
		C471.7,450.6,475,448,475.7,447.9z M487.9,375.4h57.8c2.1,2.2,4.2,4.8,6.3,7.9c-3.2,3.1-6.2,5.7-9.1,7.9h-57.8
		c-2.1-2.2-4.2-4.8-6.3-7.9C482,380.3,485,377.6,487.9,375.4z M501.3,303H558c0.7,0.1,3,2.7,6.9,7.9c-5.7,5.2-9,7.8-9.7,7.9h-56.7
		c-0.7-0.1-3-2.7-6.9-7.9C497.3,305.7,500.6,303.1,501.3,303z"/>
	<path d="M488.1,313c5,4.3,7.6,6.8,7.5,7.4l-9,50.8c-0.2,0.6-3.6,3.1-10.2,7.4c-5-4.3-7.6-6.8-7.5-7.4l9-50.8
		C478.1,319.8,481.5,317.3,488.1,313z"/>
	<path d="M554.5,386.5c5,4.3,7.6,6.8,7.5,7.4l-9,50.8c-0.2,0.6-3.6,3.1-10.2,7.4c-5-4.3-7.6-6.8-7.5-7.4l9-50.8
		C544.5,393.3,547.9,390.8,554.5,386.5z"/>
</g>
<path d="M615,109.9c2.3,2,3.5,3.1,3.4,3.4l-4.1,23.2c-0.1,0.3-1.6,1.4-4.7,3.4c-2.3-2-3.5-3.1-3.4-3.4l4.1-23.2
	C610.4,113,611.9,111.9,615,109.9z M615.4,137.9h25.9c0.3,0,1.4,1.2,3.1,3.6c-2.6,2.4-4.1,3.6-4.4,3.6h-25.9c-0.3,0-1.4-1.2-3.1-3.6
	C613.6,139.1,615.1,137.9,615.4,137.9z M621,104.8h26.4c1,1,1.9,2.2,2.9,3.6c-1.5,1.4-2.8,2.6-4.2,3.6h-26.4c-1-1-1.9-2.2-2.9-3.6
	C618.3,107,619.7,105.8,621,104.8z M627.1,71.8H653c0.3,0,1.4,1.2,3.1,3.6c-2.6,2.4-4.1,3.6-4.4,3.6h-25.9c-0.3,0-1.4-1.2-3.1-3.6
	C625.3,73,626.8,71.8,627.1,71.8z M657.4,76.8c2.3,2,3.5,3.1,3.4,3.4l-4.1,23.2c-0.1,0.3-1.6,1.4-4.7,3.4c-2.3-2-3.5-3.1-3.4-3.4
	l4.1-23.2C652.9,80,654.4,78.8,657.4,76.8z"/>
<path d="M675.7,73.2h25.9c0.3,0,1.4,1.2,3.1,3.6c-2.6,2.4-4.1,3.6-4.4,3.6h-25.9c-0.3,0-1.4-1.2-3.1-3.6
	C673.8,74.5,675.3,73.3,675.7,73.2z M706,78.3c2.3,2,3.5,3.1,3.4,3.4l-4.1,23.2c-0.1,0.3-1.6,1.4-4.7,3.4c-2.3-2-3.5-3.1-3.4-3.4
	l4.1-23.2C701.4,81.4,703,80.2,706,78.3z"/>
<path d="M699.9,111.3c2.3,2,3.5,3.1,3.4,3.4l-4.1,23.2c-0.1,0.3-1.6,1.4-4.7,3.4c-2.3-2-3.5-3.1-3.4-3.4l4.1-23.2
	C695.3,114.4,696.9,113.3,699.9,111.3z"/>
<g>
	<path d="M396.5,629h-19.8c-5.3,0-9.6,4.3-9.6,9.6v19.8c0,5.3,4.3,9.6,9.6,9.6h19.8c5.3,0,9.6-4.3,9.6-9.6v-19.8
		C406,633.3,401.8,629,396.5,629z M401.2,656c0,4-3.2,7.2-7.2,7.2h-14.7c-4,0-7.2-3.2-7.2-7.2v-15.3c0-4,3.2-7.2,7.2-7.2H394
		c4,0,7.2,3.2,7.2,7.2V656z"/>
	<circle class="st0" cx="386.6" cy="648.4" r="44"/>
</g>
<g>
	<polygon points="228.7,637.5 209.5,657.8 190.3,637.5 186.7,640.9 209.5,665 232.3,640.9 	"/>
	<circle class="st0" cx="209.5" cy="651.2" r="44"/>
</g>
<g>
	<polygon points="588.9,665 569.7,644.7 550.5,665 546.8,661.6 569.7,637.5 592.5,661.6 	"/>
	<circle class="st0" cx="569.7" cy="651.2" r="44"/>
</g>
<circle class="st1" cx="95.2" cy="658.5" r="33.7"/>
<circle cx="438.3" cy="456" r="7.7"/>
<circle cx="585.5" cy="324.1" r="7.7"/>
<circle cx="438.3" cy="456" r="7.7"/>
<circle cx="438.3" cy="456" r="7.7"/>
<g>
	<path class="st2" d="M599.7,416.4c0,8.2-4.7,12.3-10.1,12.3c-5.2,0-9.8-3.9-9.8-11.8c0-7.8,4.6-12.2,10.2-12.2
		C595.8,404.8,599.7,409,599.7,416.4z M584.3,416.8c-0.1,5,1.9,8.8,5.4,8.8c3.8,0,5.4-3.7,5.4-8.9c0-4.7-1.5-8.7-5.4-8.7
		C586.2,408,584.3,411.9,584.3,416.8z M589.2,445.1l24.8-40.3h3.6l-24.8,40.3H589.2z M627.1,432.6c0,8.2-4.7,12.3-10,12.3
		c-5.2,0-9.8-3.9-9.9-11.7c0-7.9,4.6-12.2,10.2-12.2C623.3,420.9,627.1,425.1,627.1,432.6z M611.7,432.9c-0.1,5,2,8.8,5.5,8.8
		c3.8,0,5.4-3.7,5.4-8.9c0-4.7-1.5-8.7-5.4-8.7C613.6,424.1,611.7,428,611.7,432.9z"/>
</g>
<g>
	<path class="st2" d="M632.9,363.5c-2.1,1-6.2,1.9-11.5,1.9c-12.3,0-21.6-7.2-21.6-20.5c0-12.7,9.3-21.2,22.8-21.2
		c5.4,0,8.9,1.1,10.4,1.8l-1.4,4.3c-2.1-1-5.2-1.7-8.8-1.7c-10.2,0-17,6.1-17,16.7c0,9.9,6.2,16.3,16.8,16.3c3.4,0,6.9-0.7,9.2-1.7
		L632.9,363.5z"/>
</g>
<path class="st3" d="M687.2,318.8"/>
<path class="st3" d="M697.5,331.7"/>
<g>
	<path d="M703.3,331.7h-30.1c-0.9,0-1.5,0.7-1.5,1.5v30.6c0,0.9,0.7,1.5,1.5,1.5h30.1c0.9,0,1.5-0.7,1.5-1.5v-30.6
		C704.8,332.4,704.1,331.7,703.3,331.7z"/>
	<path d="M688.2,320.8c4.4,0,6.7,3.7,6.7,10.9h4c0-9.5-3.9-14.9-10.7-14.9s-10.7,5.4-10.7,14.9h4
		C681.5,324.5,683.8,320.8,688.2,320.8z"/>
</g>
<g>
	<path class="st4" d="M333.5,50.2c0-0.8-0.4-1.2-1.2-1.2h-2.2v-4.4h5.1c2.4,0,3.4,1,3.4,3.3v10.4c0,1.3-0.1,2.2-0.1,2.2h0.1
		c1.2-2.6,4.6-5.9,9.9-5.9c6.3,0,9.1,3.4,9.1,10.2v11.5c0,0.8,0.4,1.2,1.2,1.2h2.2v4.4h-5c-2.4,0-3.4-1-3.4-3.4V66
		c0-3.7-0.8-6.7-5-6.7c-4.1,0-7.3,2.7-8.4,6.6c-0.4,1.1-0.5,2.3-0.5,3.5v12.5h-5.1V50.2z"/>
	<path class="st4" d="M377.2,54.6c7.5,0,11.5,5.6,11.5,12.5c0,0.7-0.2,2.1-0.2,2.1h-19.4c0.3,5.7,4.4,8.9,9.2,8.9
		c4.6,0,7.8-3.1,7.8-3.1l2.2,3.6c0,0-3.9,3.9-10.3,3.9c-8.4,0-14.2-6.1-14.2-13.9C363.9,60.1,369.6,54.6,377.2,54.6 M383.4,65.4
		c-0.2-4.4-2.9-6.8-6.3-6.8c-3.9,0-7.1,2.4-7.8,6.8H383.4z"/>
	<path class="st4" d="M409,65.3h1.2V65c0-4.7-1.7-6.4-5.9-6.4c-1.3,0-4.4,0.3-4.4,2.1v1.5h-4.8v-2.6c0-4.4,6.6-5,9.2-5
		c8.6,0,10.9,4.5,10.9,10.4v11.3c0,0.8,0.4,1.2,1.2,1.2h2.2v4.4h-4.8c-2.4,0-3.3-1.2-3.3-3.1c0-0.9,0.1-1.6,0.1-1.6h-0.1
		c0,0-2.1,5.3-8.5,5.3c-4.6,0-9-2.8-9-8.1C392.9,65.8,404.5,65.3,409,65.3 M403.1,78.4c4.3,0,7.1-4.5,7.1-8.5V69h-1.3
		c-3.8,0-10.8,0.2-10.8,5.1C398.1,76.3,399.7,78.4,403.1,78.4"/>
	<path class="st4" d="M424.3,59.3h-3.5v-4.1h3.6v-7.3h5v7.3h6.4v4.1h-6.4v12.2c0,5.3,3.7,6,5.6,6c0.7,0,1.2-0.1,1.2-0.1V82
		c0,0-0.7,0.1-1.8,0.1c-3.4,0-10.2-1.1-10.2-9.9V59.3z"/>
	<path class="st4" d="M442.1,60.1c0-0.6-0.3-0.8-0.9-0.8h-1.6v-4h3.8c1.8,0,2.6,1.3,2.6,3.1v12.9c0,0.6,0.3,0.9,0.9,0.9h1.6v3.3
		h-3.8c-1.8,0-2.5-0.8-2.5-2.6V60.1z M442.1,47.9h3.5v4h-3.5V47.9z"/>
	<line class="st5" x1="311.8" y1="24.1" x2="311.8" y2="103.4"/>
	<line class="st5" x1="462" y1="103.4" x2="462" y2="24.1"/>
	<g>
		<defs>
			<rect id="SVGID_3_" x="311.8" y="44.7" width="150.3" height="37.9"/>
		</defs>
		<clipPath id="SVGID_1_">
			<use xlink:href="#SVGID_3_"  style="overflow:visible;"/>
		</clipPath>
		<path class="st6" d="M453,58.8h-2.6v-3.4h2.7v-5.5h3.8v5.5h4.8v3.4h-4.8v8.9c0,4,2.8,4.5,4.3,4.5c0.6,0,0.9-0.1,0.9-0.1V73
			c0,0-0.5,2.7-1.4,2.7c-2.6,0-7.7-0.8-7.7-7.5V58.8z"/>
		<path class="st6" d="M316.8,49.1L316.8,49.1c0,1.5-0.6,2.9-1.7,3.9c-0.6,0.5-0.9,1.2-0.9,2c0,0.8,0.3,1.6,0.9,2
			c1.1,0.9,1.7,2.3,1.7,3.8c0,1.5-0.6,2.9-1.7,3.9c-0.6,0.5-0.9,1.2-0.9,2s0.3,1.6,0.9,2c1.1,0.9,1.7,2.3,1.7,3.8
			c0,1.5-0.6,2.9-1.7,3.9c-0.6,0.5-0.9,1.2-0.9,2c0,0.8,0.3,1.6,0.9,2c0.5,0.4,0.6,1.2,0.1,1.7c-0.4,0.5-1.2,0.6-1.7,0.1
			c-1.1-0.9-1.7-2.3-1.7-3.9c0-1.5,0.6-2.9,1.7-3.8c0.6-0.5,0.9-1.2,0.9-2c0-0.8-0.3-1.6-0.9-2c-1.1-0.9-1.7-2.3-1.7-3.8
			s0.6-2.9,1.7-3.9c0.6-0.5,0.9-1.2,0.9-2v0c0-0.8-0.3-1.6-0.9-2c-1.1-0.9-1.7-2.3-1.7-3.9c0-1.5,0.6-2.9,1.7-3.8
			c0.6-0.5,0.9-1.2,0.9-2c0-0.8-0.3-1.6-0.9-2c-0.5-0.4-0.6-1.2-0.1-1.7c0.4-0.5,1.2-0.6,1.7-0.1C316.1,46.2,316.8,47.6,316.8,49.1"
			/>
		<path class="st6" d="M321.4,49.1L321.4,49.1c0,1.5-0.6,2.9-1.7,3.9c-0.6,0.5-0.9,1.2-0.9,2c0,0.8,0.3,1.6,0.9,2
			c1.1,0.9,1.7,2.3,1.7,3.9c0,1.5-0.6,2.9-1.7,3.8c-0.6,0.5-0.9,1.2-0.9,2s0.3,1.6,0.9,2c1.1,0.9,1.7,2.3,1.7,3.8
			c0,1.5-0.6,2.9-1.7,3.9c-0.6,0.5-0.9,1.2-0.9,2c0,0.8,0.3,1.6,0.9,2c0.5,0.4,0.6,1.2,0.1,1.7c-0.4,0.5-1.2,0.6-1.7,0.1
			c-1.1-0.9-1.7-2.3-1.7-3.9c0-1.5,0.6-2.9,1.7-3.8c0.6-0.5,0.9-1.2,0.9-2c0-0.8-0.3-1.6-0.9-2c-1.1-0.9-1.7-2.3-1.7-3.8
			s0.6-2.9,1.7-3.9c0.6-0.5,0.9-1.2,0.9-2c0-0.8-0.3-1.6-0.9-2c-1.1-0.9-1.7-2.3-1.7-3.9c0-1.5,0.6-2.9,1.7-3.8
			c0.6-0.5,0.9-1.2,0.9-2c0-0.8-0.3-1.6-0.9-2c-0.5-0.4-0.6-1.2-0.1-1.7c0.4-0.5,1.2-0.6,1.7-0.1C320.7,46.2,321.4,47.6,321.4,49.1"
			/>
		<path class="st6" d="M326,49.1L326,49.1c0,1.5-0.6,2.9-1.7,3.9c-0.6,0.5-0.9,1.2-0.9,2c0,0.8,0.3,1.6,0.9,2
			c1.1,0.9,1.7,2.3,1.7,3.9c0,1.5-0.6,2.9-1.7,3.8c-0.6,0.5-0.9,1.2-0.9,2s0.3,1.6,0.9,2c1.1,0.9,1.7,2.3,1.7,3.8
			c0,1.5-0.6,2.9-1.7,3.9c-0.6,0.5-0.9,1.2-0.9,2c0,0.8,0.3,1.6,0.9,2c0.5,0.4,0.6,1.2,0.1,1.7c-0.4,0.5-1.2,0.6-1.7,0.1
			c-1.1-0.9-1.7-2.3-1.7-3.9c0-1.5,0.6-2.9,1.7-3.8c0.6-0.5,0.9-1.2,0.9-2c0-0.8-0.3-1.6-0.9-2c-1.1-0.9-1.7-2.3-1.7-3.8
			s0.6-2.9,1.7-3.9c0.6-0.5,0.9-1.2,0.9-2c0-0.8-0.3-1.6-0.9-2c-1.1-0.9-1.7-2.3-1.7-3.9c0-1.5,0.6-2.9,1.7-3.8
			c0.6-0.5,0.9-1.2,0.9-2c0-0.8-0.3-1.6-0.9-2c-0.5-0.4-0.6-1.2-0.1-1.7c0.4-0.5,1.2-0.6,1.7-0.1C325.3,46.2,326,47.6,326,49.1"/>
	</g>
</g>
</svg>
