<?xml version="1.0" encoding="utf-8"?>
<!-- Generator: Adobe Illustrator 24.0.0, SVG Export Plug-In . SVG Version: 6.00 Build 0)  -->
<svg version="1.1" id="Laag_1" xmlns="http://www.w3.org/2000/svg" xmlns:xlink="http://www.w3.org/1999/xlink" x="0px" y="0px"
	 viewBox="0 0 513.6 710.9" style="enable-background:new 0 0 513.6 710.9;" xml:space="preserve">
<style type="text/css">
	.st0{fill:#0066FF;stroke:#0066FF;stroke-miterlimit:10;}
	.st1{fill:none;stroke:#1D1D1B;stroke-width:2;stroke-linecap:round;stroke-linejoin:round;stroke-miterlimit:10;}
</style>
<g>
	<path class="st0" d="M242.7,260.6l0-0.1c0,0,0,0,0,0c-0.4-4.9-3.1-9.6-6.8-12.2c-0.1,0-0.1,0-0.2,0c-0.1,0-0.1,0.1-0.1,0.2
		c0,0.1,0,0.2,0,0.3c0.1,0.4,0.1,0.8,0.1,1.2c-0.1,1.2,0.3,1.8,1.4,3.3c0.4,0.7,1,1.5,1.6,2.5l0.1,0.2c0.3,0.6,0.3,0.6,0.3,1.1
		l0,0.2c0,0,0,0.1,0.1,0.1l0.1,0.1c0,0.2,0,0.5,0.1,0.8c0.1,0.4,0.1,0.9,0.1,1.4l-0.1,0.1c0,0-0.1,0.1,0,0.2c0,0.1,0,0.3-0.1,0.7
		c0,0-0.1,0.1-0.3,0.3c0,0-0.1,0.1-0.1,0.1v0.2l0,0h-0.1c-0.1,0-0.1,0-0.1,0.1c0,0,0,0-0.1,0.1c-0.1,0.1-0.1,0.1-0.3,0.3h-0.1
		c0,0-0.1,0-0.1,0.1l-0.1,0.1h-0.4c0,0-0.1,0-0.1,0l-0.1,0.1c-0.4-0.2-0.9-0.4-1.4-0.6c-6.1-2.7-17.6-7.6-15.9-16.2
		c0,0,0.1-0.1,0.1-0.1c0.1-0.2,0.4-0.4,0.7-0.7h0.1c0,0,0.1,0,0.1-0.1l0.1-0.1h0.4c0,0,0.1,0,0.1-0.1l0.1-0.1h0.4l0.1,0.1
		c0,0,0.1,0.1,0.2,0c0,0,0.1,0,0.3,0c0.1,0,0.3,0.1,0.6,0.1c0.3,0.2,0.4,0.3,0.5,0.3c0.2,0.1,0.4,0.2,1,0.7c0,0,0.1,0,0.1,0h0.2
		l0.1,0.1c0,0,0.1,0.1,0.1,0.1h0.4c0,0,0.1,0,0.1-0.1l0.1-0.1h0.1c0.1,0,0.2-0.1,0.2-0.1c0.1,0,0.1-0.1,0.1-0.2v-0.2l0.1-0.1
		c0,0,0.1-0.1,0.1-0.1v-0.4c0,0,0-0.1-0.1-0.1l-0.1-0.1v-0.4c0,0,0-0.1-0.1-0.1l-0.1-0.1v-0.1c0,0,0-0.1-0.1-0.1l-0.1-0.1V243
		c0,0,0-0.1-0.1-0.1c-0.1-0.1-0.2-0.2-0.4-0.5c-0.1-0.1-0.3-0.3-0.4-0.4c0,0-0.1-0.1-0.1-0.1h-0.1c-1.2-1.1-3.5-2-5.5-1.4
		c-1.1,0.3-2.4,1.1-3,3.4l-0.1,0.1c0,0-0.1,0.1-0.1,0.1v1.2c0,0-0.1,0.1,0,0.1c0.2,4.9,3.8,10.8,8,13.3c0,0,0,0,0,0l10.6,6.1
		c0,0,0,0,0,0c0,0,0,0,0,0c1.2,0.7,2.4,1.1,3.5,1.1c0.8,0,1.5-0.2,2.1-0.6C242,264.6,242.8,262.9,242.7,260.6
		C242.7,260.7,242.7,260.6,242.7,260.6z"/>
	<path class="st0" d="M226,239.1l0.1,0.3c0,0,0,0.1,0.1,0.1l0.2,0.1l0.1,0.2c0,0,0,0.1,0.1,0.1l0.2,0.1l0.1,0.2c0,0,0,0.1,0.1,0.1
		l0.2,0.1c1.1,1.7,2.6,4.1,2.3,7.1l-0.1,0.1c0,0-0.1,0.1-0.1,0.1v0.2l-0.1,0.1c0,0,0,0.1,0,0.1v0.1c-0.1,0.1-0.2,0.2-0.4,0.4
		c0,0-0.1,0.1-0.1,0.1v0.1l-0.3,0.3c-0.1,0-0.1,0-0.1,0c-0.1,0-0.3,0.1-0.5,0.1c0,0-0.1,0-0.1,0.1l-0.1,0.1c-0.9,0-1.2-0.2-1.9-0.5
		c-0.4-0.2-0.9-0.5-1.7-0.8l-0.1-0.1c0,0-0.1,0-0.1,0h-0.4c0,0-0.1,0-0.1,0.1l0,0c0,0-0.1,0.2-0.4,0.4c0,0-0.1,0.1-0.1,0.1v1.2
		c0,0,0,0.1,0,0.1l0.1,0.1v0.1c0,0,0,0.1,0.1,0.1l0.1,0.1c0,0.1,0,0.3,0.3,0.6v0.1c0,0,0,0.1,0,0.1c0,0,0.1,0.1,0.1,0.1
		c0.1,0.1,0.2,0.2,0.5,0.5c0,0,0.1,0.1,0.1,0.1h0.1c0.1,0.1,0.3,0.3,1.3,0.7c0.1,0.1,0.2,0.3,0.6,0.3c0.6,0.4,1.6,0.7,2.6,0.7
		c0.7,0,1.4-0.1,2-0.4c0,0,0.1-0.1,0.1-0.1c0,0,0.1,0,0.1-0.1c0.2-0.1,0.5-0.3,0.7-0.7l0.2-0.1c0,0,0,0,0.1-0.1c0.6-0.9,1-2.3,1-4
		c0,0,0-0.1,0-0.1c0,0,0,0,0-0.1c-0.1-2.3-0.9-5-2.4-7.5c-1.5-2.5-3.5-4.5-5.5-5.7c0,0,0,0-0.1,0l-10.6-6.1c0,0,0,0,0,0c0,0,0,0,0,0
		c-2.1-1.2-4.1-1.4-5.5-0.5c-1.4,0.9-2.2,2.6-2.1,5c0,0,0,0,0,0c0,0,0,0,0,0c0.4,3.2,1.9,9,6.7,12.4c0,0,0.1,0,0.1,0
		c0,0,0.1,0,0.1,0c0.1,0,0.1-0.1,0.1-0.2c0-0.2,0-0.4-0.1-0.7c-0.1-0.6-0.2-1.5,0.1-2.5c0-0.1,0-0.1-0.1-0.2c0,0,0,0,0,0
		c0,0,0,0,0-0.1c-0.1-0.2-0.4-0.5-0.8-0.7c-0.2-0.3-0.4-0.6-0.7-0.9c-0.5-0.6-1.1-1.3-1.3-2.3c0,0,0,0,0,0c0-0.1-0.1-0.1-0.1-0.2
		c-0.1-0.1-0.3-0.3-0.3-0.8c0,0,0-0.1-0.1-0.1l-0.1-0.1c0-0.2,0-0.4-0.1-0.6c-0.1-0.5-0.1-1.1-0.2-1.7c0-1.3,0.4-2.3,1.1-2.8
		c0.8-0.5,1.9-0.4,3.2,0.3c0,0,0,0,0,0c0.2,0.1,0.6,0.3,1,0.6C218,234.3,225.1,238.4,226,239.1z"/>
</g>
<line class="st1" x1="265.5" y1="244.1" x2="266.6" y2="243.4"/>
<g>
	<path class="st1" d="M265.5,243.9c0.6,0.4,1.1,0.1,1.1-0.6c0-0.7-0.5-1.6-1.2-1.9"/>
</g>
<line class="st1" x1="239.8" y1="573.8" x2="250.4" y2="579.9"/>
<line class="st1" x1="223.5" y1="564.6" x2="234.3" y2="570.6"/>
<line class="st1" x1="210.3" y1="557" x2="217.9" y2="561.4"/>
<line class="st1" x1="256" y1="583.1" x2="256.8" y2="583.5"/>
<polyline class="st1" points="71.5,248.6 71.5,250.6 78.4,254.6 "/>
<g>
	<path class="st1" d="M192.1,221.6c0,0.6,0.1,1.1,0.2,1.7"/>
</g>
<polyline class="st1" points="64.3,245 64.6,254.9 71.5,250.6 "/>
<line class="st1" x1="109.8" y1="243.2" x2="71.6" y2="267.2"/>
<line class="st1" x1="78.4" y1="254.6" x2="102.9" y2="239.4"/>
<polyline class="st1" points="64.6,254.9 71.5,258.9 62.4,264.5 71.7,269.9 74,268.4 71.7,267.2 "/>
<polyline class="st1" points="70.8,239.9 68.5,241.3 67.8,219.3 "/>
<line class="st1" x1="73.3" y1="244.8" x2="88.5" y2="235.2"/>
<polyline class="st1" points="90.3,438 74.8,447.7 71.5,337.4 "/>
<line class="st1" x1="139.7" y1="395.2" x2="138.6" y2="357.2"/>
<polyline class="st1" points="135.8,323.4 103,343.9 103.6,360.1 "/>
<line class="st1" x1="137.5" y1="319.8" x2="136.4" y2="283.9"/>
<polyline class="st1" points="80.4,292.6 80.2,286.4 85.6,282.9 "/>
<polyline class="st1" points="77.7,325.5 71.2,329.5 69.6,274.9 "/>
<polyline class="st1" points="260.8,329.5 326.1,366.8 329.4,477 327.2,475.7 327.3,483.5 329.7,484.9 331.3,539.7 329,538.3 
	329.2,544.6 338.5,549.9 332.7,363 60.6,207.4 61.7,243.7 71.1,248.9 70.8,242.7 68.5,241.3 "/>
<polyline class="st1" points="67.8,219.3 133,256.6 133.5,268.7 140.4,272.5 140.1,260.5 253.9,325.5 254.2,337.5 261.2,341.5 
	260.8,329.5 "/>
<polyline class="st1" points="260.8,553.9 147.1,488.9 146.7,476.9 139.8,472.9 140.1,484.9 74.8,447.7 "/>
<polyline class="st1" points="71.5,337.4 73.9,338.8 73.6,330.9 71.2,329.5 "/>
<polyline class="st1" points="69.6,274.9 71.9,276.1 71.7,269.9 "/>
<polyline class="st1" points="62.4,264.5 68.2,451.6 340.3,607 339.2,570.8 329.9,565.5 330.1,571.7 332.4,573.1 333.1,595.1 
	267.8,557.9 267.4,545.9 260.5,541.9 260.8,553.9 "/>
<polyline class="st1" points="326.7,390.5 128.3,277.1 128.1,268.7 326.5,382.1 "/>
<polyline class="st1" points="328.8,457.4 130.4,344 130.7,352.6 329.1,466 "/>
<polyline class="st1" points="197.2,456.3 304.1,517.4 304.2,522.7 197.5,461.7 197.2,456.3 "/>
<polyline class="st1" points="132.9,424.8 183.5,453.7 183.4,448.4 132.8,419.5 132.9,424.8 "/>
<line class="st1" x1="318.2" y1="530.7" x2="318" y2="525.3"/>
<line class="st1" x1="354.7" y1="551.6" x2="344.9" y2="545.9"/>
<line class="st1" x1="330.2" y1="537.6" x2="318.2" y2="530.7"/>
<line class="st1" x1="331.2" y1="532.9" x2="318" y2="525.3"/>
<g>
	<path class="st1" d="M128.2,268.6c1.8-2.2,3.6-4.5,5.2-7"/>
</g>
<line class="st1" x1="144.9" y1="387.2" x2="329.2" y2="492.4"/>
<line class="st1" x1="142.6" y1="311.7" x2="327.6" y2="417.3"/>
<line class="st1" x1="327.7" y1="421" x2="139.5" y2="313.6"/>
<g>
	<path class="st1" d="M130.2,333.6c4.1-6.3,7.3-13.1,9.4-20"/>
</g>
<line class="st1" x1="135.8" y1="336.8" x2="130.3" y2="333.7"/>
<g>
	<path class="st1" d="M130.4,344c1.9-2.3,3.7-4.7,5.4-7.3"/>
</g>
<polyline class="st1" points="183.5,453.7 190.4,449.4 199,454.2 "/>
<polyline class="st1" points="90.6,444.5 96.1,447.7 132.9,424.8 "/>
<line class="st1" x1="147.1" y1="488.9" x2="160.8" y2="480.4"/>
<line class="st1" x1="267.8" y1="557.9" x2="281.5" y2="549.2"/>
<line class="st1" x1="332.7" y1="582.8" x2="332" y2="582.5"/>
<polyline class="st1" points="304.2,522.7 311.1,518.4 319.7,523.2 "/>
<line class="st1" x1="311" y1="515.8" x2="311.1" y2="518.4"/>
<g>
	<path class="st1" d="M311.1,515.8c2.7-3.8,5.2-7.9,7.3-12.2"/>
	<path class="st1" d="M304,517.3c4-4.8,7.5-10.2,10.3-16"/>
	<path class="st1" d="M197.3,456.3c4-4.8,7.5-10.2,10.3-16"/>
</g>
<line class="st1" x1="328.3" y1="509.4" x2="314.4" y2="501.4"/>
<g>
	<path class="st1" d="M318,525.3c4-4.8,7.5-10.2,10.3-16"/>
</g>
<line class="st1" x1="329.4" y1="496.1" x2="141.9" y2="389"/>
<g>
	<path class="st1" d="M138.7,397.6c1.3-2.9,2.4-5.8,3.2-8.7"/>
</g>
<line class="st1" x1="144.2" y1="400.9" x2="138.7" y2="397.7"/>
<g>
	<path class="st1" d="M132.7,419.4c4.6-5.5,8.6-11.9,11.5-18.6"/>
	<path class="st1" d="M183.3,448.3c4-4.8,7.5-10.2,10.3-16"/>
</g>
<line class="st1" x1="207.6" y1="440.4" x2="193.6" y2="432.4"/>
<polyline class="st1" points="329.8,489.9 329.2,490.3 330.2,521.7 "/>
<line class="st1" x1="329.8" y1="490.7" x2="329.2" y2="490.3"/>
<polyline class="st1" points="84,228.4 84.1,232.7 89.6,235.9 89.5,231.6 "/>
<polyline class="st1" points="325.4,366.4 325.5,370.6 326.2,371 "/>
<line class="st1" x1="330.2" y1="521.7" x2="330.8" y2="522.1"/>
<line class="st1" x1="331.7" y1="572.7" x2="332" y2="582.5"/>
<polyline class="st1" points="96.1,447.7 95.6,431.3 90,428.1 90.6,444.5 "/>
<polyline class="st1" points="80.4,292.6 86,295.8 86.3,308.4 92,311.5 91,280.2 85.3,277 85.8,289.6 80.2,286.4 "/>
<line class="st1" x1="93.1" y1="233.7" x2="89.6" y2="235.9"/>
<line class="st1" x1="141.9" y1="389" x2="144.9" y2="387.2"/>
<line class="st1" x1="138.7" y1="397.7" x2="90" y2="428.1"/>
<line class="st1" x1="139.5" y1="313.6" x2="142.6" y2="311.7"/>
<line class="st1" x1="125.2" y1="252.1" x2="85.3" y2="277"/>
<line class="st1" x1="144.2" y1="400.9" x2="95.6" y2="431.3"/>
<polyline class="st1" points="103.6,360.1 114.6,366.4 134,354.5 "/>
<polyline class="st1" points="103,343.9 114.2,350.3 114.7,366.4 "/>
<line class="st1" x1="135.8" y1="336.8" x2="114.2" y2="350.2"/>
<line class="st1" x1="138.2" y1="282.8" x2="92" y2="311.5"/>
<line class="st1" x1="130.8" y1="255.3" x2="91" y2="280.2"/>
<line class="st1" x1="334.5" y1="565.4" x2="354.8" y2="552.8"/>
<polyline class="st1" points="355.4,569.1 348.3,565.1 339.2,570.8 "/>
<polyline class="st1" points="334.5,565.4 332.1,564.1 329.9,565.5 "/>
<line class="st1" x1="74" y1="268.4" x2="74.1" y2="274.8"/>
<polyline class="st1" points="73.3,247.5 73.2,241.2 70.8,239.9 "/>
<line class="st1" x1="331.3" y1="536.9" x2="329" y2="538.3"/>
<polyline class="st1" points="354.7,548.1 347.8,544.1 338.5,549.9 "/>
<polyline class="st1" points="348.3,565.1 349.4,601.2 340.3,607 "/>
<polyline class="st1" points="347.8,544.1 342,357.2 332.7,363 "/>
<polyline class="st1" points="256.4,573.3 257.1,592.8 389.8,668.5 "/>
<polyline class="st1" points="98.1,126.7 98.2,129 85.6,121.8 "/>
<line class="st1" x1="49.8" y1="455.3" x2="38.9" y2="101.5"/>
<g>
	<path class="st1" d="M49.9,455.3c0.3,10.7,8.3,23.7,17.7,29.1"/>
</g>
<polyline class="st1" points="256.4,573.3 256.4,572.3 256,571.2 255.5,569.9 255,568.8 254.3,567.7 253.5,566.9 252.5,566.1 
	251.7,565.4 207,539.9 206.2,539.5 205.4,539.4 204.5,539.4 203.8,539.7 203.3,540.1 202.9,540.8 202.6,541.6 202.6,542.6 
	203.1,561.9 67.6,484.5 "/>
<line class="st1" x1="342" y1="357.2" x2="69.9" y2="201.8"/>
<line class="st1" x1="355.4" y1="569.1" x2="354.7" y2="548.1"/>
<g>
	<path class="st1" d="M214.4,212.2c-14.1-8-25.1-1.7-24.7,14.2c0.5,15.9,12.3,35.3,26.4,43.3"/>
</g>
<line class="st1" x1="265.4" y1="241.4" x2="214.3" y2="212.3"/>
<line class="st1" x1="214.7" y1="215" x2="265.5" y2="244.1"/>
<g>
	<path class="st1" d="M214.4,214.7c-12.8-7.3-22.9-1.5-22.4,12.9c0.4,14.5,11.2,32.2,24,39.5"/>
</g>
<line class="st1" x1="267" y1="296.5" x2="216" y2="267.3"/>
<g>
	<path class="st1" d="M267.3,298.9c0.6,0.4,1.1,0.1,1.1-0.6c0-0.7-0.5-1.6-1.2-1.9"/>
</g>
<line class="st1" x1="216.1" y1="269.9" x2="267.2" y2="299.1"/>
<polyline class="st1" points="355,408.6 355.1,412.3 362.7,416.6 363,425.3 366.2,427.1 366,418.6 373.6,422.8 373.5,419.2 
	365.9,414.8 365.6,406.2 362.3,404.3 362.6,413 355,408.6 "/>
<polyline class="st1" points="373.6,497.2 373.5,493.1 357.3,483.8 357.3,488 373.6,497.2 "/>
<polyline class="st1" points="359.5,559.4 359.7,563 367.4,567.5 367.7,576.2 370.9,578 370.6,569.4 378.3,573.7 378.2,570.1 
	370.4,565.7 370.2,557 367,555.2 367.3,563.9 359.5,559.4 "/>
<polyline class="st1" points="64,316.2 58,312.8 57.7,304.2 54.5,302.3 54.6,311 "/>
<polyline class="st1" points="54.6,311 48.2,307.3 48.3,310.8 54.8,314.6 55.1,323.7 58.4,325.6 58.1,316.5 64,320 "/>
<polyline class="st1" points="61.7,240.9 45.9,231.8 46.1,236 "/>
<polyline class="st1" points="46.1,236 62.3,245.3 62.3,243.9 "/>
<polyline class="st1" points="66.3,391.6 50.5,382.6 50.6,386.9 66.4,395.9 "/>
<line class="st1" x1="69.9" y1="201.8" x2="60.6" y2="207.4"/>
<line class="st1" x1="73.3" y1="247.5" x2="71.1" y2="248.9"/>
<line class="st1" x1="73.2" y1="241.2" x2="70.8" y2="242.7"/>
<g>
	<path class="st1" d="M190.4,446.8c2.7-3.8,5.2-7.9,7.3-12.2"/>
</g>
<line class="st1" x1="190.3" y1="446.9" x2="190.4" y2="449.4"/>
<line class="st1" x1="192.5" y1="218.6" x2="193.3" y2="219"/>
<g>
	<path class="st1" d="M197.5,209.9c-3.8,3.1-5.8,8.7-5.4,15.9"/>
</g>
<line class="st1" x1="216.1" y1="269.9" x2="218.2" y2="268.5"/>
<g>
	<path class="st1" d="M214.1,212c-5.3-2.3-10.2-2.4-13.8-0.2"/>
</g>
<line class="st1" x1="214.7" y1="215" x2="216.5" y2="213.5"/>
<line class="st1" x1="267.2" y1="299.1" x2="268.3" y2="298.4"/>
<polyline class="st1" points="362.6,413 363.9,412.1 363.8,405.1 "/>
<polyline class="st1" points="366,418.6 367.3,417.6 373.6,421.2 "/>
<polyline class="st1" points="363,425.3 364.4,424.4 366.2,425.5 "/>
<polyline class="st1" points="362.7,416.6 364.1,415.8 364.4,424.4 "/>
<polyline class="st1" points="355.1,412.3 356.5,411.4 364.1,415.8 "/>
<line class="st1" x1="356.3" y1="409.4" x2="356.5" y2="411.4"/>
<polyline class="st1" points="358.7,484.5 358.7,487.1 373.6,495.6 "/>
<line class="st1" x1="368.4" y1="556" x2="368.6" y2="562.9"/>
<polyline class="st1" points="361,560.3 361,562.2 368.8,566.6 369.1,575.2 370.9,576.3 "/>
<line class="st1" x1="372" y1="568.4" x2="378.2" y2="572"/>
<line class="st1" x1="55.9" y1="303.1" x2="56" y2="310"/>
<polyline class="st1" points="49.7,308.1 49.7,310 56.2,313.8 56.4,322.9 58.2,324 "/>
<line class="st1" x1="59.5" y1="315.5" x2="64" y2="318.2"/>
<polyline class="st1" points="47.3,232.6 47.5,235.1 61.7,243.4 "/>
<polyline class="st1" points="52,383.4 52,385.9 66.4,394.2 "/>
<line class="st1" x1="357.3" y1="488" x2="358.7" y2="487.1"/>
<line class="st1" x1="367.3" y1="563.9" x2="368.6" y2="562.9"/>
<line class="st1" x1="370.6" y1="569.4" x2="372" y2="568.4"/>
<line class="st1" x1="367.7" y1="576.2" x2="369.1" y2="575.2"/>
<line class="st1" x1="367.4" y1="567.5" x2="368.8" y2="566.6"/>
<line class="st1" x1="359.7" y1="563" x2="361" y2="562.2"/>
<line class="st1" x1="54.6" y1="311" x2="56" y2="310"/>
<line class="st1" x1="58.1" y1="316.5" x2="59.5" y2="315.5"/>
<line class="st1" x1="55.1" y1="323.7" x2="56.4" y2="322.9"/>
<line class="st1" x1="54.8" y1="314.6" x2="56.2" y2="313.8"/>
<line class="st1" x1="48.3" y1="310.8" x2="49.7" y2="310"/>
<line class="st1" x1="46.1" y1="236" x2="47.5" y2="235.1"/>
<line class="st1" x1="50.6" y1="386.9" x2="52" y2="385.9"/>
<polyline class="st1" points="238.7,615.6 238.4,605.1 257.1,592.8 "/>
<polyline class="st1" points="245.3,600.5 195.3,571.9 203.3,561.9 204.1,560.8 256.9,591 "/>
<line class="st1" x1="256" y1="583.1" x2="256.8" y2="582.7"/>
<line class="st1" x1="250.4" y1="579.9" x2="256.5" y2="575.9"/>
<line class="st1" x1="239.8" y1="573.8" x2="251.9" y2="565.7"/>
<line class="st1" x1="234.2" y1="570.6" x2="246.4" y2="562.5"/>
<line class="st1" x1="223.5" y1="564.6" x2="235.8" y2="556.4"/>
<line class="st1" x1="217.9" y1="561.4" x2="230.2" y2="553.2"/>
<line class="st1" x1="204.1" y1="560.8" x2="210.3" y2="557"/>
<polyline class="st1" points="195.3,571.9 195.4,576.9 183.5,584.1 183.2,573.5 203.1,561.9 "/>
<line class="st1" x1="207.1" y1="540.1" x2="202.6" y2="542.6"/>
<line class="st1" x1="212" y1="557.9" x2="225" y2="550.3"/>
<line class="st1" x1="373.3" y1="682.2" x2="238.4" y2="605.1"/>
<line class="st1" x1="373.3" y1="682.2" x2="389.9" y2="671.9"/>
<line class="st1" x1="48.3" y1="496.5" x2="67.6" y2="484.5"/>
<line class="st1" x1="183.2" y1="573.5" x2="48.3" y2="496.5"/>
<g>
	<path class="st1" d="M373.5,682.1c9.5,5.4,16.9,1.1,16.5-9.5"/>
</g>
<line class="st1" x1="378.6" y1="306" x2="389.9" y2="672.7"/>
<line class="st1" x1="35.8" y1="91.1" x2="360.9" y2="276.8"/>
<polyline class="st1" points="22.7,92.3 80.2,125.2 87.4,120.6 "/>
<g>
	<path class="st1" d="M25,89.4c-0.8,0.8-1.5,1.7-2.1,2.8"/>
	<path class="st1" d="M35.9,91.1c-9.5-5.4-16.9-1.1-16.5,9.5"/>
</g>
<line class="st1" x1="19.3" y1="100.7" x2="28" y2="95.3"/>
<line class="st1" x1="30.4" y1="467.4" x2="19.3" y2="100.7"/>
<line class="st1" x1="30.4" y1="467.4" x2="49.8" y2="455.3"/>
<g>
	<path class="st1" d="M30.7,467.3C31,478,39,491,48.4,496.4"/>
	<path class="st1" d="M378.7,305.9c-0.3-10.7-8.3-23.7-17.7-29.1"/>
</g>
<line class="st1" x1="373.6" y1="692.7" x2="238.7" y2="615.6"/>
<g>
	<path class="st1" d="M373.8,692.6c14.6,8.4,26,1.8,25.5-14.7"/>
</g>
<line class="st1" x1="387.9" y1="311.3" x2="399.2" y2="677.9"/>
<g>
	<path class="st1" d="M360.6,266.3C360.6,266.3,360.6,266.3,360.6,266.3"/>
	<path class="st1" d="M388,311.3c-0.1-2.4-0.4-4.9-1-7.5"/>
</g>
<line class="st1" x1="360.5" y1="266.3" x2="35.4" y2="80.6"/>
<g>
	<path class="st1" d="M35.5,80.6c-14.6-8.4-26-1.8-25.5,14.7"/>
</g>
<line class="st1" x1="21.2" y1="462" x2="10" y2="95.4"/>
<g>
	<path class="st1" d="M21.3,462c0.5,16.5,12.8,36.6,27.4,45"/>
</g>
<line class="st1" x1="183.5" y1="584.1" x2="48.6" y2="507"/>
<line class="st1" x1="195.4" y1="576.9" x2="241.4" y2="603.1"/>
<line class="st1" x1="241.3" y1="574.7" x2="253.6" y2="567"/>
<line class="st1" x1="225.1" y1="565.4" x2="237.7" y2="557.5"/>
<line class="st1" x1="37.1" y1="79.7" x2="35.4" y2="80.6"/>
<line class="st1" x1="360.5" y1="266.3" x2="360.5" y2="266.3"/>
<line class="st1" x1="388.1" y1="311.3" x2="387.9" y2="311.3"/>
<line class="st1" x1="399.5" y1="677.8" x2="399.2" y2="677.9"/>
<polyline class="st1" points="375.4,293.7 321.8,263 321.5,254.3 "/>
<line class="st1" x1="80.2" y1="125.2" x2="79.9" y2="116.3"/>
<line class="st1" x1="74.1" y1="274.8" x2="71.9" y2="276.1"/>
<polyline class="st1" points="73.9,338.8 80.2,334.8 79.9,326.9 77.7,325.5 "/>
<line class="st1" x1="73.6" y1="330.9" x2="79.9" y2="326.9"/>
<line class="st1" x1="327.2" y1="475.7" x2="329.4" y2="474.3"/>
<line class="st1" x1="354.8" y1="551.4" x2="333.4" y2="564.8"/>
<line class="st1" x1="269.8" y1="336.1" x2="261.2" y2="341.5"/>
<g>
	<path class="st1" d="M270.4,334.9c-0.2,0.4-0.4,0.8-0.6,1.2"/>
</g>
<line class="st1" x1="281.4" y1="542.2" x2="281.5" y2="549.2"/>
<g>
	<path class="st1" d="M276.2,540.3c1.6,0.9,3.4,1.4,5.3,1.7"/>
</g>
<line class="st1" x1="267.4" y1="545.9" x2="276" y2="540.5"/>
<line class="st1" x1="260.5" y1="541.9" x2="269.1" y2="536.5"/>
<g>
	<path class="st1" d="M269.3,536.3c1.6,0.9,3.4,1.4,5.3,1.7"/>
</g>
<line class="st1" x1="274.3" y1="538.1" x2="281.4" y2="542.2"/>
<line class="st1" x1="269.1" y1="536.5" x2="276" y2="540.5"/>
<line class="st1" x1="149.1" y1="267.3" x2="140.4" y2="272.5"/>
<g>
	<path class="st1" d="M149.7,265.9c-0.2,0.4-0.4,0.8-0.6,1.2"/>
</g>
<line class="st1" x1="160.7" y1="473.2" x2="160.8" y2="480.4"/>
<g>
	<path class="st1" d="M155.5,471.3c1.6,0.9,3.4,1.4,5.3,1.7"/>
</g>
<line class="st1" x1="146.7" y1="476.9" x2="155.3" y2="471.5"/>
<line class="st1" x1="139.8" y1="472.9" x2="148.4" y2="467.5"/>
<g>
	<path class="st1" d="M148.4,467.4c1.6,0.9,3.4,1.4,5.3,1.7"/>
</g>
<line class="st1" x1="160.7" y1="473.2" x2="153.6" y2="469.2"/>
<line class="st1" x1="155.3" y1="471.5" x2="148.4" y2="467.5"/>
<line class="st1" x1="200.2" y1="211.9" x2="197.9" y2="213.4"/>
<line class="st1" x1="22" y1="75.8" x2="16.9" y2="78.8"/>
<line class="st1" x1="397.1" y1="691.3" x2="392.7" y2="694.2"/>
<line class="st1" x1="200.9" y1="451.6" x2="191" y2="445.9"/>
<g>
	<path class="st1" d="M139.6,385.2c1.1-0.7,1.1-2.9-0.1-4.8"/>
</g>
<polyline class="st1" points="326.9,393.3 209.2,325.4 209.2,323.4 "/>
<g>
	<path class="st1" d="M220.9,356.4c0.3-4.2-2-9.7-5.6-13.7c-3.6-4-7.8-5.5-10.5-3.9"/>
	<path class="st1" d="M141.7,5.9c-9.3-5.3-18-6.3-24.3-2.6"/>
	<path class="st1" d="M142.3,5.7c-0.2-0.1-0.4-0.1-0.7,0.1"/>
	<line class="st1" x1="141.6" y1="6" x2="465" y2="192.6"/>
	<path class="st1" d="M465.7,192.5c-0.2-0.1-0.4-0.1-0.7,0.1"/>
	<path class="st1" d="M501,251.8c-0.7-21.7-16.7-48.3-35.9-59.3"/>
	<path class="st1" d="M501,251.8c0.2-0.1,0.4-0.3,0.4-0.6"/>
</g>
<line class="st1" x1="500.8" y1="251.9" x2="512.2" y2="618.6"/>
<g>
	<path class="st1" d="M512.2,618.5c0.2-0.1,0.4-0.3,0.4-0.6"/>
	<path class="st1" d="M503.5,640c5.9-3.8,8.9-11.5,8.6-21.5"/>
</g>
<line class="st1" x1="50.1" y1="518.2" x2="185.4" y2="596.4"/>
<line class="st1" x1="238.1" y1="626.8" x2="373.5" y2="704.9"/>
<g>
	<path class="st1" d="M46.9,505.9c1,0.7,2,1.3,2.9,1.9"/>
</g>
<line class="st1" x1="49.9" y1="507.7" x2="49.8" y2="507.7"/>
<polyline class="st1" points="373.2,694.5 236.9,615.9 238.7,614.6 "/>
<line class="st1" x1="374.9" y1="693.4" x2="373.2" y2="694.5"/>
<polyline class="st1" points="198.4,578.7 198,578.8 186.1,586.4 49.8,507.7 "/>
<line class="st1" x1="36.5" y1="79.4" x2="359.9" y2="266"/>
<line class="st1" x1="388.1" y1="312.6" x2="399.5" y2="679.3"/>
<polyline class="st1" points="329.1,468.6 167.3,375.1 168,400.3 "/>
<line class="st1" x1="194.6" y1="440.3" x2="204.5" y2="446.1"/>
<line class="st1" x1="168.7" y1="374.3" x2="167.3" y2="375.1"/>
<g>
	<path class="st1" d="M388.2,312.5c-0.5-17.1-13.1-37.9-28.2-46.6"/>
</g>
<polyline class="st1" points="185.4,596.4 185.6,596.5 185.9,596.5 186,596.5 186.1,596.5 186.3,596.4 186.3,596.2 186.4,596.1 
	186.4,595.9 186.1,586.4 "/>
<g>
	<path class="st1" d="M36.7,79.3c-12-6.9-22.3-4.1-25.4,6.8"/>
	<path class="st1" d="M373.2,694.4c15.1,8.7,26.9,1.9,26.4-15.2"/>
</g>
<polyline class="st1" points="238.1,626.8 238,626.6 237.8,626.5 237.6,626.4 237.4,626.1 237.3,625.9 237.3,625.7 237.2,625.4 
	237.2,625.3 236.9,615.9 "/>
<g>
	<path class="st1" d="M373.6,704.9c20.1,11.7,35.9,2.6,35.2-20.3"/>
</g>
<line class="st1" x1="408.7" y1="684.6" x2="397.4" y2="318"/>
<g>
	<path class="st1" d="M397.4,317.9c-0.7-22.9-17.6-50.8-37.8-62.5"/>
	<line class="st1" x1="359.7" y1="255.5" x2="36.3" y2="68.9"/>
	<path class="st1" d="M36.3,68.8C16.1,57.1,0.4,66.2,1.1,89.1"/>
</g>
<line class="st1" x1="1" y1="89.2" x2="12.3" y2="455.7"/>
<g>
	<path class="st1" d="M12.4,455.7c0.7,22.9,17.6,50.8,37.8,62.5"/>
</g>
<line class="st1" x1="201.1" y1="586.5" x2="186.4" y2="595.9"/>
<g>
	<path class="st1" d="M201,587c0.2-0.1,0.3-0.3,0.2-0.6"/>
</g>
<polyline class="st1" points="201.1,586.5 198.3,585.2 198,578.8 "/>
<line class="st1" x1="202.9" y1="583.9" x2="202.7" y2="581.1"/>
<polyline class="st1" points="238.9,604.8 202.9,583.9 202.4,583.8 201.9,583.6 201.3,583.6 200.8,583.6 200.2,583.8 199.7,584.1 
	199.1,584.3 198.7,584.7 198.3,585.2 "/>
<polyline class="st1" points="205.9,585.7 205.1,585.6 204.4,585.7 203.6,585.7 202.7,586 201.9,586.1 201.1,586.5 "/>
<line class="st1" x1="141.6" y1="6" x2="36.3" y2="68.9"/>
<line class="st1" x1="465" y1="192.6" x2="359.6" y2="255.5"/>
<line class="st1" x1="500.8" y1="251.9" x2="397.4" y2="318"/>
<line class="st1" x1="512.2" y1="618.6" x2="408.7" y2="684.6"/>
<polyline class="st1" points="160.3,295.4 160.6,304.8 199,326.9 198.7,317.3 "/>
<polyline class="st1" points="195,315.3 195.3,320.7 164.1,302.7 163.9,297.6 "/>
<line class="st1" x1="211" y1="324.4" x2="209.2" y2="325.4"/>
<line class="st1" x1="168.3" y1="300.1" x2="164.1" y2="302.7"/>
<line class="st1" x1="206.9" y1="322" x2="199" y2="326.9"/>
<g>
	<polyline class="st1" points="503.6,640 503.9,639.9 504.1,639.6 504.4,639.5 504.7,639.2 505,639.1 505.2,638.8 505.5,638.7 
		505.7,638.4 505.9,638.1 506.2,638 506.5,637.7 506.6,637.4 506.9,637.1 507.2,636.9 507.3,636.6 507.6,636.3 507.9,636 508,635.8 
		508.3,635.5 508.4,635.2 508.7,634.9 508.8,634.5 509,634.2 509.3,634 509.4,633.7 509.5,633.3 509.7,633 509.9,632.6 510.1,632.3 
		510.2,632 510.4,631.6 510.5,631.2 510.6,630.9 510.8,630.5 510.9,630.2 511,629.8 511.2,629.4 511.3,629.1 511.3,628.7 
		511.5,628.3 511.6,627.9 511.7,627.5 511.7,627.1 511.9,626.8 511.9,626.4 512,625.9 512,625.5 512.2,625.1 512.2,624.7 
		512.3,624.3 512.3,623.9 512.3,623.3 512.4,622.9 512.4,622.5 512.4,622.1 512.4,621.7 512.6,621.2 512.6,620.7 512.6,620.3 
		512.6,619.9 512.6,619.3 512.6,618.9 512.6,618.5 512.6,617.9 501.2,251.4 501.2,250.8 501.2,250.4 501.2,249.9 501.1,249.5 
		501.1,248.9 501.1,248.4 501,247.9 501,247.4 501,247 500.8,246.4 500.8,245.9 500.7,245.4 500.7,244.9 500.5,244.3 500.4,243.8 
		500.4,243.4 500.3,242.8 500.1,242.3 500,241.7 500,241.3 499.8,240.7 499.7,240.2 499.6,239.6 499.4,239.1 499.3,238.5 
		499.2,238.1 499,237.6 498.9,237 498.6,236.5 498.5,235.9 498.3,235.4 498.2,234.9 498.1,234.4 497.8,233.8 497.6,233.3 
		497.5,232.7 497.2,232.2 497.1,231.6 496.8,231.1 496.7,230.7 496.4,230.1 496.3,229.5 496,229 495.7,228.4 495.6,227.9 
		495.3,227.3 495,226.8 494.7,226.4 494.6,225.8 494.3,225.3 494,224.7 493.8,224.2 493.5,223.7 493.2,223.2 492.9,222.6 
		492.7,222.1 492.4,221.5 492.1,221.1 491.8,220.6 491.6,220 491.3,219.5 491,219 490.6,218.5 490.3,217.9 490,217.5 489.8,217 
		489.3,216.4 489.1,216 488.8,215.4 488.4,214.9 488.1,214.5 487.8,213.9 487.4,213.5 487.1,213 486.7,212.5 486.4,212 486,211.6 
		485.7,211 485.3,210.6 485.1,210.2 484.6,209.6 484.2,209.2 484,208.8 483.5,208.3 483.1,207.8 482.8,207.4 482.4,207 482,206.5 
		481.7,206 481.3,205.6 480.9,205.2 480.5,204.8 480.1,204.4 479.8,204 479.4,203.6 479,203.1 478.6,202.7 478.1,202.3 477.7,201.9 
		477.3,201.5 477,201.2 476.6,200.8 476.2,200.4 475.8,200 475.4,199.7 475,199.3 474.5,198.9 474.1,198.6 473.7,198.2 473.3,197.9 
		472.9,197.5 472.5,197.2 472.1,196.9 471.6,196.5 471.2,196.2 470.8,196 470.4,195.5 470,195.3 469.6,195 469,194.7 468.6,194.4 
		468.2,194.2 467.8,193.9 467.4,193.6 466.9,193.3 466.5,193 466.1,192.8 465.7,192.5 142.3,5.8 141.9,5.6 141.5,5.4 141.1,5.1 
		140.5,4.9 140.1,4.7 139.7,4.5 139.3,4.3 138.8,4 138.4,3.9 138,3.6 137.6,3.5 137.2,3.4 136.8,3.2 136.4,2.9 135.9,2.8 135.5,2.7 
		135,2.5 134.6,2.4 134.1,2.2 133.7,2.1 133.3,2 132.9,1.8 132.5,1.8 132.1,1.7 131.7,1.6 131.2,1.6 130.8,1.4 130.4,1.4 130.1,1.3 
		129.7,1.3 129.3,1.1 128.9,1.1 128.5,1.1 128.1,1 127.6,1 127.2,1 127,1 126.5,1 126.1,1 125.7,1 125.3,1 125,1 124.6,1.1 
		124.2,1.1 123.8,1.1 123.5,1.3 123.1,1.3 122.7,1.4 122.4,1.4 122,1.6 121.7,1.6 121.3,1.7 121,1.8 120.6,1.8 120.3,2 119.9,2.1 
		119.6,2.2 119.2,2.4 118.9,2.5 118.7,2.7 118.2,2.8 118,3.1 117.7,3.2 117.3,3.4 	"/>
</g>
<line class="st1" x1="204.8" y1="338.8" x2="197.7" y2="343.2"/>
<line class="st1" x1="139.5" y1="385.2" x2="139.4" y2="385.2"/>
<polyline class="st1" points="205.9,585.7 205.8,585.7 205.6,585.7 205.3,585.7 205.2,585.7 205.1,585.7 204.8,585.7 204.7,585.7 
	204.5,585.7 204.1,585.8 203.8,585.8 203.6,586 203.1,586 202.9,586.1 202.6,586.3 202.2,586.4 201.9,586.5 201.6,586.5 
	201.3,586.7 201.2,587 200.9,587.1 186.1,596.5 "/>
<line class="st1" x1="117.3" y1="3.4" x2="10.7" y2="66.1"/>
<line class="st1" x1="503.6" y1="640" x2="399.6" y2="707.2"/>
<line class="st1" x1="300.2" y1="281.3" x2="313.8" y2="287.3"/>
</svg>
