<?xml version="1.0" encoding="utf-8"?>
<!-- Generator: Adobe Illustrator 21.1.0, SVG Export Plug-In . SVG Version: 6.00 Build 0)  -->
<svg version="1.1" id="Laag_1" xmlns="http://www.w3.org/2000/svg" xmlns:xlink="http://www.w3.org/1999/xlink" x="0px" y="0px"
	 viewBox="0 0 1001 1001" style="enable-background:new 0 0 1001 1001;" xml:space="preserve">
<style type="text/css">
	.st0{fill:#FFFFFF;}
</style>
<g id="_x23_ffffffff">
	<path class="st0" d="M466.3,494.5c1.1-0.9,2.6,1,1.5,1.9C466.6,497.4,465.1,495.4,466.3,494.5z"/>
</g>
<g id="_x23_000000ff">
	<path d="M79.4,4.6C83.1,4.4,90.4,4.2,94,4C365.7,4,637.3,4.1,909,4c15.4-0.5,30.7,2.8,45.1,8c16.2,7.8,30.7,20.7,37,38
		c5.9,12.5,5.4,26.6,5.9,40c0,278.3,0,556.7,0,835c0.8,12.8-4.2,25-9.8,36.2c-6.7,13.2-19,22.2-31.6,29.3c-12.5,6.2-27,6.3-40.6,6.4
		c-278.3,0-556.7-0.1-835,0.1c-28.4,2-56.6-16.2-68.1-42c-7.7-14.4-7-31.3-7.9-47C4,636.3,4,364.7,4,93c-0.2-9.7,1.5-19.3,2.1-29
		c5.1-19.5,16.7-38.3,34.8-48C52.3,8.4,66.1,5.7,79.4,4.6 M58.7,16.7C33.8,26.5,12.7,50.2,13,78c-1.2,3.6,1.2,6.3,3.6,8.4
		c33.7,24.3,67.9,47.8,101.7,71.9c1.2-9.2,4.8-17.9,10.7-25.2c6.9-9.1,18.2-13.1,29.1-14.8c-17.6-22.8-32.6-47.5-50-70.4
		C99.5,36.6,91.7,24.8,83.8,13C75.4,14.3,66.9,14.5,58.7,16.7 M86,13c10.2,15.6,21.4,30.5,32.5,45.4c10.8,16.4,22.6,32.2,33.6,48.5
		c2.6,3.6,5,7.6,8.4,10.5c7.4,1.4,15.1,0.3,22.6,0.6c219.9-0.3,439.8,0.2,659.8-0.2c11.8-19,25.8-36.4,38.2-55
		C893.2,46.5,904.6,29.4,917,13C640,13,363,13,86,13 M919.3,12.9c-25.5,34.9-50.1,70.4-75.2,105.6c7.3,1.3,15,2.5,21.1,7.2
		c11.2,7.2,17,20.2,18.7,33c23.4-16.6,46-34.2,70.1-49.7c12-7.6,23-16.8,35.1-24.3c0.6-23.2-9.9-47.3-30.1-59.7
		C947.6,16.4,933,14.8,919.3,12.9 M13.1,86.6c-0.3,141.5,0,282.9-0.1,424.4c0.1,135.1-0.3,270.3,0.2,405.4
		c34.7-24.9,69.7-49.4,104.7-73.8c0.1-227.4,0.3-454.8-0.1-682.2C82.7,136.1,47.9,111.4,13.1,86.6 M989,87
		c-25.5,19.1-52.6,35.8-78.1,54.8c-9,6.8-18.2,13.5-27.7,19.5c-0.2,226.8-0.3,453.6,0,680.3c10.1,6.1,19.4,13.4,28.9,20.3
		c24.9,19,52,35,76.9,54.2C989,639.7,989,363.4,989,87 M160.4,120.5c-12.6,0.7-25.6,6.5-32.4,17.5c-6.4,8.5-8.1,19.6-8,30
		c0,210,0,420,0,630c0.1,15.7-0.6,31.4,0.8,47c1.2,17.5,14.9,33.8,32.6,36.5c15.2,1.1,30.4,0.4,45.7,0.5c213.3,0,426.7,0,640,0
		c20.3,1.8,42-14.8,41.9-36c0.2-216.7,0-433.4,0.1-650c-0.1-13.4,0.4-26.7-0.2-40c-0.2-11.5-7.3-21.9-16.6-28.2
		c-9.8-7.2-22.6-7.8-34.2-7.8c-206.7,0.2-413.3,0-620,0.1C193.5,120.2,176.9,119.4,160.4,120.5 M883.5,844
		c-0.8,11.1-5,22.4-13.8,29.6c-6.8,6.5-16.1,9.3-25.2,11c17.3,25,34.9,49.6,52.6,74.3c7.6,9.8,13.5,21,22.1,29.8
		c12.8,0.7,26.1-1.2,36.8-8.8c21.8-12,34.2-37.1,33.2-61.6c-12.1-7.6-23.1-16.8-35.2-24.4C929.8,878.4,907,860.7,883.5,844
		 M15.5,917.6c-4.8,3-1.7,9.5-2,14c2.2,19.7,14.7,37.2,31.3,47.6c11.4,8.1,25.9,10.2,39.6,9.9c13-21.1,29.2-40,42.7-60.8
		c9.5-15.2,20.5-29.5,31.6-43.6c-10.2-1.5-20.8-4.5-28-12.4c-6.6-7.8-11.3-17.2-12.6-27.3C84,869,49.5,892.9,15.5,917.6
		 M161.2,884.1c-10,14-21.1,27.2-30.3,41.8c-13.7,21.7-30.3,41.4-44.2,63c276.4,0.1,552.9,0.1,829.3,0c-15-20.7-30.2-41.4-44.5-62.6
		c-10.6-13.6-20-28-29.7-42.3C615,884,388.1,883.9,161.2,884.1z"/>
	<path d="M189.4,165.6c14.8-1.2,29.7-0.4,44.6-0.6c190,0,380,0.1,570-0.1c10.5-0.3,22.4,2.1,29,11c3.2,5.3,2.5,12.1,3,18
		c-0.1,208.4,0.1,416.7-0.1,625.1c-1.1,11-12.5,17.9-22.9,17.8c-25.7,0.8-51.4-0.1-77-0.8c-151.7,0-303.3,0-455,0
		c-26.7-0.2-53.3,1.6-80,1.2c-7.8-0.4-16.1,0.7-23.3-2.8c-7.3-4.4-12.4-12.7-12.4-21.3c-1.4-31,1.1-62,0.8-93
		c-0.1-153.3,0-306.7,0-460c-0.4-24-1.9-48-0.8-72C166.6,175.9,177,165.6,189.4,165.6 M177.5,175.2c1.2,1.6,2.4,3.2,3.6,4.8
		c2.9-1.3,5.8-2.5,8.8-3.5c0-1.7,0-5.1,0-6.8C185.6,171.3,181.6,173.3,177.5,175.2 M192,170c0,1.5,0,4.5,0,6c205.7,0,411.3,0,617,0
		c0-1.5,0-4.5,0-6C603.3,170,397.7,170,192,170 M811.2,169.4c0,1.9-0.1,5.7-0.2,7.5c3.2,0.6,6.4,1.9,9.7,2c1.6-0.8,2.8-2,4.2-3.2
		C820.5,173.3,815.9,171.3,811.2,169.4 M175.1,177c-2,4.2-4,8.5-5.6,12.8c1.7,0,5.2-0.1,6.9-0.1c1.1-2.9,2.4-5.7,3.7-8.6
		C178.9,180.2,176.4,178.1,175.1,177 M822.2,181.9c1,2.6,2.1,5.3,3.1,8c1.8-0.1,5.5-0.1,7.3-0.2c-1.9-4.3-3.8-8.5-5.9-12.7
		C825.2,178.7,823.7,180.3,822.2,181.9 M191.4,181.6c-3.8,0.7-8.2,2.5-9.4,6.5c-1.5,4.5-2.1,9.2-2,13.9c0,196.7,0.1,393.4,0,590
		c0.3,8-0.1,16.2,2.2,23.9c1.6,5,7.3,5.6,11.8,5.2c191.7-0.2,383.4,0,575-0.1c14.9-0.2,29.9,0.6,44.8-0.4c3.1-1.5,7.6-3.4,7.2-7.5
		c0-195,0-390.1,0-585.1c-0.1-13.2,0.6-26.4-0.5-39.6c-1.4-5.9-9-8.3-14.4-7.5c-190,0.2-380,0.1-570,0.1
		C221.1,181.1,206.2,180.3,191.4,181.6 M169,192c0,206,0,412,0,618c1.8,0,5.2,0,7,0c0-206,0-412,0-618C174.2,192,170.8,192,169,192
		 M825,192c0,206,0,412,0,618c1.8,0,5.2,0,7,0c0-206,0-412,0-618C830.2,192,826.8,192,825,192 M169.3,812.3c1.6,4.6,3.8,9,6.2,13.3
		c1.5-1.3,3-2.5,4.5-3.8c-1.2-3.2-2.3-6.5-3.3-9.7C174.8,812.1,171.1,812.2,169.3,812.3 M825.2,812.1c-0.7,2.9-2,5.7-2.2,8.8
		c0.7,1.9,1.9,3.5,3,5.2c3.1-4.1,5.5-8.8,6.8-13.8C830.9,812.2,827.1,812.1,825.2,812.1 M181.3,822.6c-1.3,1.8-2.6,3.7-3.9,5.5
		c4.4,1.6,8.8,3.3,13.4,4.1C190.3,826.7,185.3,824.9,181.3,822.6 M810,832.5c4.8-1.2,9.5-2.7,14.2-4.5c-0.5-1.6-1-3.2-1.5-4.7
		C817.5,825,809.9,825.3,810,832.5 M192,826c0,1.5,0,4.5,0,6c205.7,0,411.3,0,617,0c0-1.5,0-4.5,0-6C603.3,826,397.7,826,192,826z"
		/>
	<path d="M345.4,406.6c18.1-1.3,36.4-0.8,54.6-0.5c3.7,0,5,4.4,7.2,6.6c0.6,0.9,1.1,2.7,0,3.5c-3.9,3-7.9,7.1-13.3,6.5
		c-16.7,0.7-33.4,0.5-50.1,0.3c-4.7,0.2-6.7-5.1-9.2-8.1C336.8,410.8,341.1,407.9,345.4,406.6z"/>
	<path d="M323.5,431.5c0.3-6.8,6.4-10.5,11.2-14.2c2.4,2.7,4.9,5.4,7.4,8.1c-2.1,16.1-5.6,32-8.7,48c0,7.4-7.2,10.3-12.4,13.6
		c-2.2-4.3-7.3-8.2-4.8-13.6C318.5,459.4,321,445.5,323.5,431.5z"/>
	<path d="M464.4,490.1c3-5.1,8.2-9.8,14.6-8.9c17-0.5,34-0.6,51,0c3.4,1.2,5.1,5.2,7.3,7.9c-1.8,3.7-5.5,6-9,7.9
		c-19.4,2.2-39,0.5-58.5,1c1.8,10.7-1.5,21.2-3.1,31.7c-1.6,8.1-2.1,16.5-4.9,24.3c-2.5,3.6-6.5,5.8-9.9,8.6
		c-2.6-2.9-5.1-5.9-7.7-8.8c2.9-15.7,5.2-31.6,8.2-47.3C452.9,498.8,461,496.1,464.4,490.1 M466.3,494.5c-1.1,0.9,0.3,2.8,1.5,1.9
		C468.9,495.6,467.4,493.6,466.3,494.5z"/>
	<path d="M618.4,481.6c18.2-1.3,36.4-0.8,54.6-0.5c4.1,0.3,5.8,5.2,8.2,8c-1.7,3.9-5.9,6.5-9.7,8.2c-18.2,1.4-36.4,0.7-54.6,0.6
		c-4.7,0.2-6.7-5.1-9.2-8.1C609.8,485.8,614.1,482.9,618.4,481.6z"/>
	<path d="M310.5,506.6c0.4-6.8,6.3-10.6,11.2-14.2c2.2,2.9,4.4,5.8,6.6,8.7c-1.8,13.9-4.6,27.6-6.7,41.4c-1,4-1.1,8.4-3.1,12.1
		c-2.8,3-6.3,5.4-9.5,8c-2.6-2.9-5.1-5.9-7.7-8.8C304.7,538.1,307.1,522.2,310.5,506.6z"/>
	<path d="M596.5,506.5c0.3-6.8,6.4-10.5,11.2-14.2c2.4,2.7,4.9,5.4,7.4,8.1c-2,16.1-5.6,32-8.7,48c0,7.4-7.2,10.3-12.4,13.6
		c-2.2-4.3-7.3-8.2-4.8-13.7C591.5,534.4,594,520.5,596.5,506.5z"/>
	<path d="M525.7,501.5c3.2-3.9,7.9-6.3,12.4-8.4c2.4,4.3,6.7,8.3,5.6,13.8c-2.4,14.2-5.3,28.4-8.2,42.6c0,6.6-6.1,9.6-10.4,13.1
		c-3-2.8-5.9-5.7-8.8-8.6C519.7,536.5,521.8,518.8,525.7,501.5z"/>
	<path d="M669.7,501.5c2.6-3.5,6.5-5.6,9.9-8.1c2.5,2.3,5,4.6,7.5,6.9c-1.6,16.2-5,32.1-7.7,48.1c-0.2,6.3-5.4,10.7-10.6,13.4
		c-4-0.8-5.8-5.4-8.7-7.9C663.8,536.6,665.7,518.8,669.7,501.5z"/>
	<path d="M307.4,564.4c5-2.7,9.5-7.4,15.6-7.1c17.4-0.9,34.8-0.1,52.1-0.3c1.9,3.3,6.4,5.6,6.6,9.7c-3.4,3.3-7.5,7-12.7,6.2
		c-18.7,0.6-37.4,0-56.1,0.2C311,570.1,309.2,567.3,307.4,564.4z"/>
	<path d="M450.4,564.4c5-2.7,9.5-7.4,15.6-7c13.3-0.8,26.7-0.5,40-0.5c4.2,0.8,9.6-1.3,13.2,1.9c2.2,1.8,4.4,3.9,5.8,6.4
		c-1,3.8-5.2,5.7-8.4,7.3c-20.2,1.4-40.5,0.2-60.7,0.6C454,570.1,452.2,567.3,450.4,564.4z"/>
	<path d="M473.4,683.7c9-9.8,18.3-19.5,28.3-28.4c9.2,9.4,19.4,17.9,27.5,28.4c-7.5,8.8-15.8,17.1-25.1,24.2
		c0.1-2.7,0.4-8.1,0.5-10.8c3.2-5.4,8.1-9.4,12.3-13.9c-5.2-5.1-10.3-10.2-15.5-15.3c-5.1,5.2-10.2,10.3-15.2,15.5
		c3.4,3.9,7.4,7.5,10.1,12.1c0.4,4,0.6,8,0.8,12.1C488.3,700.5,481.2,691.8,473.4,683.7z"/>
	<path d="M320.4,695.9c10.2-10.2,21.8-18.9,33.3-27.5c10.8,8.8,21.6,17.7,31.9,27.1c-15.1,0.5-30.3,0.8-45.5-0.1
		c6.5-6.7,16.2-7,25-7c-3.9-3.4-7.8-6.9-11.6-10.4c-6.4,5-12.5,10.5-19,15.4C330.6,696.7,325,695,320.4,695.9z"/>
	<path d="M616.4,670.9c15.2-1.2,30.4-1.2,45.6-0.5c-2.1,2.4-4.2,5.2-7.5,5.9c-6.3,0.7-12.5,0.7-18.8,0.9c4.6,4,9.2,7.9,13.9,11.7
		c6.9-5.9,13.4-12.2,20.8-17.4c3.5-1.8,7.7-1,11.5-1.4c-9.5,10.7-21.1,19.3-32.2,28.4C638.4,689.6,626.3,681.4,616.4,670.9z"/>
</g>
</svg>
